<svg viewBox="0 0 191 200" fill="none" xmlns="http://www.w3.org/2000/svg"><path d="M0 20C0 8.954 8.954 0 20 0h150.566c11.046 0 20 8.954 20 20v160c0 11.046-8.954 20-20 20H20c-11.046 0-20-8.954-20-20V20Z" fill="url(#a)"/><path d="M0 20C0 8.954 8.954 0 20 0h150.566c11.046 0 20 8.954 20 20v160c0 11.046-8.954 20-20 20H20c-11.046 0-20-8.954-20-20V20Z" fill="url(#b)" fill-opacity=".2"/><path d="M102.012 60.552c-13.226 0-19.84 12.757-19.84 38.272v10.112c0 12.117 1.75 21.632 5.249 28.544 3.498 6.827 8.66 10.24 15.488 10.24 9.386 0 18.005-9.131 25.855-27.392h2.305l-.896 28.544h-1.409c-.512-.939-.981-1.579-1.407-1.92-.427-.427-1.067-.64-1.92-.64-.768 0-3.84.683-9.216 2.048a70.5 70.5 0 0 1-16.385 1.92c-13.909 0-24.704-3.755-32.383-11.264-7.595-7.509-11.393-18.773-11.393-33.792 0-15.104 3.968-26.752 11.904-34.944 8.022-8.192 18.774-12.288 32.257-12.288a57.01 57.01 0 0 1 15.231 2.048c5.035 1.28 7.979 1.92 8.833 1.92.853 0 1.493-.17 1.92-.512.426-.427.896-1.11 1.408-2.048h1.408l1.023 27.776h-2.303c-3.84-8.619-7.808-15.19-11.904-19.712-4.011-4.608-8.619-6.912-13.825-6.912Z" fill="#1E1E1E"/><defs><linearGradient id="a" x1="163.5" y1="0" x2="162" y2="200" gradientUnits="userSpaceOnUse"><stop stop-color="#F8F8A0"/><stop offset="1" stop-color="#ECEC70"/></linearGradient><linearGradient id="b" x1="30.5" y1="0" x2="32" y2="200" gradientUnits="userSpaceOnUse"><stop stop-color="#02ACE5"/><stop offset="1" stop-color="#FF8049"/></linearGradient></defs></svg>
